<svg aria-hidden="true" style="position: absolute; width: 0; height: 0; overflow: hidden;" version="1.1" xmlns="http://www.w3.org/2000/svg" xmlns:xlink="http://www.w3.org/1999/xlink">
<defs>
<symbol id="icon-mic" viewBox="0 0 20 32">
<path fill="#ccba8d" style="fill: var(--color1, #ccba8d)" d="M2.797 32v-1.855h6.538v-3.95c-5.245-0.523-9.311-4.901-9.336-10.235v-0.003h1.844c0.009 2.814 1.404 5.3 3.537 6.814l0.026 0.017c1.326 0.989 2.997 1.583 4.807 1.583 0.152 0 0.303-0.004 0.453-0.012l-0.021 0.001c4.476-0.217 8.028-3.878 8.068-8.378v-0.004h1.855c0 0.021 0 0.046 0 0.071 0 2.656-1.028 5.072-2.709 6.872l0.005-0.006c-1.668 1.824-3.979 3.036-6.572 3.277l-0.040 0.003v3.898h6.559v1.886l-15.014 0.020z"></path>
<path fill="#bdae82" style="fill: var(--color2, #bdae82)" d="M16.849 7.492v2.819h-4.663v1.865h4.652v2.808h-4.642v1.886h4.568c-0.46 3.206-3.188 5.644-6.486 5.644s-6.026-2.437-6.482-5.608l-0.004-0.035h4.589v-1.855h-4.631v-2.819h4.631v-1.876h-4.631v-2.797h4.631v-1.896h-4.568c0.49-3.174 3.203-5.577 6.476-5.577 3.27 0 5.98 2.397 6.47 5.53l0.004 0.037h-4.579v1.876l4.664-0.001z"></path>
</symbol>
<path fill="#ccba8d" style="fill: var(--color1, #ccba8d)" d="M19.774 32.023c-5.204 0-10.408 0-15.611 0-0.017 0-0.037 0.001-0.058 0.001-2.268 0-4.106-1.838-4.106-4.106 0-0.020 0-0.040 0.001-0.061v0.003c0.046-6.039 0.046-12.081 0-18.127 0-0.007 0-0.015 0-0.023 0-2.274 1.843-4.117 4.117-4.117 10.453 0 20.895 0 31.348 0 0.052-0.003 0.114-0.004 0.176-0.004 2.173 0 3.934 1.761 3.934 3.934 0 0.066-0.002 0.131-0.005 0.196l0.001-0.009v18.15c0.004 0.070 0.007 0.151 0.007 0.234 0 2.173-1.761 3.934-3.934 3.934-0.067 0-0.133-0.002-0.199-0.005l0.010 0.001-15.681-0.001zM19.774 28.077c0.027 0 0.060 0.001 0.092 0.001 5.103 0 9.241-4.138 9.241-9.241s-4.138-9.241-9.241-9.241c-5.096 0-9.228 4.124-9.241 9.216v0.001c0.031 5.046 4.088 9.135 9.119 9.218h0.008l0.023 0.046zM7.926 12.191c-0.025-0.717-0.607-1.292-1.325-1.304h-0.001c-0.726 0-1.315 0.589-1.315 1.315s0.589 1.315 1.315 1.315c0.728-0.013 1.314-0.599 1.327-1.325v-0.001z"></path>
<path fill="#ccba8d" style="fill: var(--color1, #ccba8d)" d="M27.059 3.946h-14.559c0.228-0.915 0.435-1.796 0.663-2.676 0.050-0.723 0.649-1.291 1.38-1.291 0.086 0 0.17 0.008 0.252 0.023l-0.008-0.001h10.133c0.045-0.005 0.097-0.008 0.148-0.008 0.671 0 1.226 0.499 1.315 1.145l0.001 0.007c0.218 0.824 0.423 1.647 0.629 2.47 0.023 0.103 0.023 0.206 0.045 0.332h0.001z"></path>
<path fill="#ccba8d" style="fill: var(--color1, #ccba8d)" d="M19.751 28.031c-5.094-0.013-9.217-4.145-9.217-9.241 0-5.103 4.138-9.241 9.241-9.241s9.241 4.138 9.241 9.241c0 0.032 0 0.064-0.001 0.097v-0.005c-0.077 5.062-4.193 9.137-9.263 9.149h-0.001zM19.751 25.389c3.645 0 6.599-2.954 6.599-6.599s-2.954-6.599-6.599-6.599c-3.636 0-6.586 2.941-6.599 6.575v0.001c0 0.013 0 0.030 0 0.046 0 3.632 2.944 6.576 6.576 6.576 0.024 0 0.049 0 0.072-0.001h-0.004l-0.045 0.001z"></path>
<path fill="#bdae82" style="fill: var(--color2, #bdae82)" d="M7.926 12.191c-0.012 0.72-0.586 1.302-1.302 1.327h-0.003c-0.726 0-1.315-0.589-1.315-1.315s0.589-1.315 1.315-1.315c0.71 0.024 1.279 0.594 1.304 1.302v0.003l0.001-0.001z"></path>
<path fill="#ccba8d" style="fill: var(--color1, #ccba8d)" d="M19.923 13.53c2.802 0.092 5.050 2.343 5.135 5.139v0.008c0.001 0.024 0.003 0.053 0.003 0.083 0 0.724-0.566 1.316-1.28 1.359h-0.004c-0.003 0-0.008 0-0.012 0-0.733 0-1.327-0.594-1.327-1.327-0.025-1.441-1.18-2.604-2.616-2.642h-0.004c-0.011 0-0.023 0.001-0.036 0.001-0.72 0-1.304-0.584-1.304-1.304 0-0.020 0.001-0.040 0.001-0.061v0.003c0.035-0.705 0.615-1.263 1.325-1.263 0.041 0 0.081 0.002 0.121 0.005l-0.005-0.001 0.001 0.001z"></path>
</symbol>
<symbol id="icon-video" viewBox="0 0 38 32">
<path fill="#bdae82" style="fill: var(--color2, #bdae82)" d="M38.3 0.836v30.383c-0.242 0.483-0.733 0.808-1.3 0.808-0.041 0-0.081-0.002-0.122-0.005l0.005 0.001h-35.479c-0.042 0.005-0.092 0.008-0.141 0.008-0.702 0-1.271-0.569-1.271-1.271 0-0.050 0.003-0.099 0.008-0.148l-0.001 0.006c0-9.745 0-19.49 0-29.235-0.003-0.035-0.006-0.076-0.006-0.118 0-0.702 0.569-1.271 1.271-1.271 0.045 0 0.090 0.003 0.134 0.007l-0.006-0.001c11.834 0 23.66 0 35.479 0 0.048-0.006 0.104-0.010 0.161-0.010 0.568 0 1.055 0.345 1.263 0.836l0.003 0.009h0.001zM14.428 15.989v3.579c0.001 0.234 0.033 0.461 0.093 0.676l-0.004-0.018c0.227 0.576 0.78 0.976 1.425 0.976 0.326 0 0.629-0.102 0.877-0.277l-0.005 0.003c2.13-1.226 4.237-2.464 6.344-3.713 0.435-0.236 0.725-0.689 0.725-1.21s-0.291-0.974-0.718-1.206l-0.007-0.004c-2.108-1.293-4.27-2.531-6.433-3.78-0.226-0.141-0.5-0.225-0.794-0.225-0.838 0-1.516 0.679-1.516 1.516 0 0.032 0.001 0.064 0.003 0.095v-0.004c0.078 1.193 0.011 2.397 0.011 3.59l-0.001 0.001zM6.044 4.193v-1.907h-3.757v1.907h3.757zM2.23 29.681h3.813v-1.873h-3.813v1.873zM12.053 2.285h-3.691v1.896h3.691v-1.896zM14.372 2.285v1.896h3.702v-1.951l-3.702 0.056zM24.072 4.193v-1.907h-3.691v1.896l3.691 0.011zM30.104 2.285h-3.724v1.896h3.724v-1.896zM24.084 29.692v-1.818h-3.702v1.873l3.702-0.056zM12.042 29.692v-1.818h-3.691v1.873l3.691-0.056zM18.074 29.692v-1.818h-3.691v1.884l3.691-0.067zM30.104 27.807h-3.724v1.873h3.724v-1.873zM36.025 4.193v-1.962h-3.624v1.962h3.624zM36.025 27.807h-3.624v1.884h3.635l-0.011-1.884z"></path>
</symbol>
<symbol id="icon-image" viewBox="0 0 42 32">
<path fill="#bdae82" style="fill: var(--color2, #bdae82)" d="M0 31.042v-30.084c0.232-0.568 0.781-0.962 1.421-0.962 0.038 0 0.077 0.001 0.115 0.004h39.25c0.036-0.003 0.079-0.005 0.122-0.005 0.794 0 1.437 0.643 1.437 1.437 0 0.043-0.002 0.086-0.006 0.127l0.001-0.005c0 6.063 0 12.127 0 18.179 0 3.61 0 7.22 0 10.83 0.005 0.042 0.008 0.092 0.008 0.141 0 0.703-0.57 1.274-1.274 1.274-0.019 0-0.038-0.001-0.058-0.001h-39.323c-0.065 0.009-0.14 0.015-0.217 0.015-0.652 0-1.215-0.385-1.473-0.939l-0.004-0.010 0.001-0.001zM39.722 2.652h-37.082v17.887l0.409-0.28 7.185-5.152c0.254-0.255 0.605-0.412 0.993-0.412s0.739 0.157 0.993 0.412l7.548 5.409c1.168 0.841 2.337 1.683 3.505 2.5 0.212 0.164 0.482 0.263 0.775 0.263 0.577 0 1.064-0.383 1.22-0.908l0.003-0.009c0.033-0.109 0.051-0.234 0.051-0.364 0-0.495-0.272-0.926-0.675-1.152l-0.006-0.003c-1.628-1.145-3.22-2.294-4.778-3.446l-0.362-0.269 0.211-0.164 6.508-4.673c0.254-0.255 0.605-0.412 0.993-0.412s0.739 0.157 0.993 0.412l11.099 7.968 0.409 0.269 0.010-17.876z"></path>
<path fill="#ccba8d" style="fill: var(--color1, #ccba8d)" d="M17.256 5.981c1.936 0 3.505 1.569 3.505 3.505 0.029 0.172 0.047 0.369 0.047 0.57 0 1.936-1.569 3.505-3.505 3.505s-3.505-1.569-3.505-3.505c0-0.202 0.017-0.399 0.050-0.591l-0.003 0.020c0-0.001 0-0.001 0-0.001 0-1.903 1.516-3.452 3.407-3.503h0.005l-0.001 0.001z"></path>
</symbol>
<symbol id="icon-logo" viewBox="0 0 32 32">
<path  d="M13.088 3.366c-0.87 0.28-1.603 0.779-1.786 1.214l-0.077 0.183-1.206-0.006-0.156-0.322c-0.119-0.245-0.223-0.358-0.439-0.476l-0.282-0.154h-2.035c-2.67 0-3.006 0.133-3.006 1.189v0.297l-0.454 0.222c-1.674 0.818-2.985 2.433-3.503 4.314l-0.144 0.525v6.454c0 7.047-0.021 6.592 0.35 7.589 0.832 2.235 2.762 3.852 5.121 4.294 0.793 0.149 20.264 0.149 21.057 0 2.359-0.441 4.289-2.058 5.121-4.294 0.371-0.997 0.35-0.542 0.35-7.589v-6.454l-0.139-0.494c-0.726-2.585-2.586-4.346-5.215-4.943-0.393-0.089-0.909-0.111-3.173-0.135l-2.703-0.028-0.074-0.177c-0.183-0.436-0.97-0.961-1.837-1.225-0.683-0.208-5.114-0.195-5.77 0.016zM25.638 6.926c1.915 0.194 3.408 1.363 4.056 3.178l0.176 0.494 0.018 5.96c0.020 6.815 0.041 6.497-0.498 7.592-0.607 1.234-1.83 2.167-3.197 2.439-0.732 0.145-19.659 0.145-20.389 0-1.379-0.276-2.598-1.227-3.24-2.528-0.489-0.993-0.475-0.76-0.455-7.503l0.018-5.96 0.195-0.539c0.625-1.728 2.153-2.944 3.931-3.128 0.759-0.078 18.61-0.083 19.383-0.005v0.001zM6.091 7.609c-2.008 0.29-3.304 1.924-3.304 4.166v0.83h4.296l0.144-0.293c0.636-1.296 1.915-2.701 3.292-3.616 0.515-0.342 1.872-1.031 2.032-1.031 0.037 0 0.067-0.028 0.067-0.062 0-0.076-5.997-0.072-6.527 0.005v0.001zM19.382 7.587c0 0.029 0.106 0.090 0.235 0.135 1.965 0.681 4.359 2.819 5.176 4.622l0.119 0.262h4.302v-0.83c0-2.093-0.968-3.465-2.881-4.085-0.376-0.122-6.951-0.219-6.951-0.103l-0.001-0.001zM15.405 8.011c-7.299 0.703-10.841 8.612-6.386 14.259 4.926 6.242 15.222 3.139 15.867-4.783 0.432-5.305-4.245-9.979-9.482-9.476zM17.065 10.205c4.204 0.595 6.825 5.131 5.225 9.044-1.843 4.508-7.757 5.664-11.145 2.178-4.495-4.625-0.532-12.136 5.92-11.222zM15.278 11.246c-3.783 0.527-5.964 4.336-4.47 7.807 1.716 3.983 7.47 4.477 9.912 0.851 2.672-3.968-0.692-9.319-5.442-8.658zM17.739 12.102c0.73 0.224 1.277 0.747 1.29 1.233 0.029 1.121-2.242 1.086-3.002-0.047-0.578-0.861 0.451-1.573 1.712-1.186zM14.529 20.643c0.692 0.144 1.722 0.768 1.722 1.043 0 0.641-2.326 0.227-3.005-0.535-0.469-0.527 0.102-0.754 1.283-0.508zM26.824 23.039c-1.292 0.395-1.042 2.168 0.305 2.163 1.37-0.004 1.472-1.995 0.112-2.18-0.138-0.019-0.325-0.011-0.417 0.017v-0.001z"></path>
</symbol>
<symbol id="icon-fb-1icons" viewBox="0 0 32 32">
<path d="M13.040 29.333l-0.040-11.667h-5v-5h5v-3.333c0-4.493 2.787-6.667 6.8-6.667 1.92 0 3.573 0.133 4.053 0.2v4.707h-2.787c-2.173 0-2.6 1.040-2.6 2.56v2.533h6.2l-1.667 5h-4.533v11.667h-5.426z"></path>
</symbol>
<symbol id="icon-pinterest-1icons" viewBox="0 0 32 32">
<path d="M16 2.667c-7.343 0.027-13.286 5.986-13.286 13.333 0 5.599 3.452 10.393 8.343 12.368l0.089 0.032c-0.133-1.053-0.227-2.667 0.040-3.827l1.56-6.627c0 0-0.4-0.8-0.4-1.973 0-1.853 1.080-3.227 2.427-3.227 1.133 0 1.693 0.853 1.693 1.867 0 1.147-0.733 2.853-1.12 4.44-0.32 1.333 0.667 2.413 1.987 2.413 2.373 0 4.187-2.493 4.187-6.093 0-3.2-2.293-5.413-5.573-5.413-0.076-0.004-0.164-0.006-0.253-0.006-3.189 0-5.773 2.585-5.773 5.773 0 0.002 0 0.004 0 0.006 0 1.147 0.44 2.373 0.987 3.040 0.107 0.133 0.12 0.253 0.080 0.387l-0.373 1.507c-0.053 0.24-0.2 0.307-0.44 0.187-1.68-0.787-2.72-3.2-2.72-5.173 0-4.2 3.067-8.053 8.827-8.053 4.613 0 8.227 3.28 8.227 7.693 0 4.6-2.907 8.293-6.933 8.293-1.333 0-2.613-0.707-3.040-1.533l-0.84 3.16c-0.431 1.337-0.992 2.498-1.688 3.563l0.034-0.056c1.17 0.372 2.516 0.587 3.911 0.587 7.364 0 13.333-5.97 13.333-13.333 0-7.347-5.942-13.306-13.282-13.333h-0.003l-0.001-0.002z"></path>
</symbol>
<symbol id="icon-tw-1icons" viewBox="0 0 32 32">
<path d="M29.333 7.84c-1 0.493-2 0.667-3.173 0.827 1.173-0.667 2-1.667 2.333-3-1.005 0.608-2.176 1.071-3.423 1.322l-0.070 0.012c-1.031-1.014-2.44-1.646-3.996-1.667h-0.004c-2.84 0-5.333 2.507-5.333 5.507 0 0.493 0 0.827 0.173 1.16-4.578-0.178-8.619-2.337-11.311-5.639l-0.022-0.028c-0.425 0.726-0.676 1.598-0.676 2.529 0 0.109 0.003 0.218 0.010 0.326l-0.001-0.015c0.034 1.878 1.009 3.521 2.473 4.481l0.021 0.013c-0.84 0-1.667-0.333-2.507-0.667 0 2.667 1.84 4.84 4.333 5.333-0.493 0.173-1 0.173-1.493 0.173-0.333 0-0.667 0-1-0.173 0.667 2.173 2.667 3.84 5.173 3.84-1.8 1.455-4.116 2.335-6.637 2.335-0.071 0-0.142-0.001-0.213-0.002h-1.322c2.365 1.509 5.236 2.429 8.316 2.493h0.017c10 0 15.507-8.333 15.507-15.507v-0.667c1.147-0.79 2.093-1.787 2.803-2.944l0.024-0.042h-0.002z"></path>
</symbol>
<symbol id="icon-Vectoricons" viewBox="0 0 32 32">
<path d="M17.554 0.762c2.743 0 3.322 0.031 4.723 0.091 1.615 0.077 2.728 0.335 3.688 0.717 1.006 0.381 1.859 0.914 2.697 1.752 0.854 0.838 1.371 1.691 1.768 2.697 0.381 0.96 0.625 2.072 0.701 3.703 0.077 1.448 0.091 2.011 0.091 5.059v2.438c0 3.048-0.015 3.611-0.091 5.059-0.026 1.331-0.281 2.594-0.727 3.765l0.025-0.077c-0.397 1.006-0.914 1.859-1.752 2.697-0.854 0.854-1.706 1.371-2.712 1.768-0.96 0.381-2.072 0.625-3.688 0.701-1.448 0.077-2.026 0.091-5.074 0.091h-2.423c-3.048 0-3.611-0.015-5.074-0.091-1.331-0.026-2.594-0.281-3.765-0.727l0.077 0.025c-1.055-0.403-1.954-0.999-2.696-1.752l-0.001-0.001c-0.761-0.745-1.362-1.65-1.751-2.662l-0.017-0.051c-0.419-1.093-0.674-2.357-0.701-3.677v-0.011c-0.061-1.191-0.095-2.586-0.095-3.989 0-0.258 0.001-0.517 0.003-0.774v0.039-3.123c0-2.743 0.031-3.322 0.091-4.723 0.077-1.615 0.335-2.728 0.701-3.688 0.397-1.006 0.914-1.859 1.768-2.697 0.737-0.762 1.639-1.36 2.648-1.736l0.049-0.016c1.091-0.424 2.354-0.685 3.674-0.715h0.014c1.402-0.061 1.981-0.091 4.723-0.091h3.125zM17.585 3.505h-3.185c-2.637 0-3.2 0.031-4.571 0.091-1.478 0.061-2.286 0.305-2.819 0.518-0.717 0.274-1.219 0.609-1.752 1.143s-0.869 1.037-1.143 1.752c-0.198 0.534-0.457 1.341-0.518 2.834-0.061 1.371-0.091 1.92-0.091 4.571v3.169c0 2.651 0.031 3.2 0.091 4.571 0.061 1.478 0.305 2.286 0.518 2.819 0.274 0.717 0.609 1.219 1.143 1.752s1.037 0.869 1.752 1.143c0.534 0.214 1.341 0.457 2.834 0.518 1.478 0.077 2.011 0.091 5.303 0.091h1.691c3.306 0 3.825-0.015 5.318-0.091 1.478-0.061 2.286-0.305 2.819-0.518 0.717-0.274 1.219-0.609 1.752-1.143s0.869-1.037 1.143-1.752c0.214-0.534 0.457-1.341 0.518-2.819 0.077-1.494 0.091-2.011 0.091-5.318v-1.677c0-3.306-0.015-3.84-0.091-5.334-0.061-1.478-0.305-2.286-0.518-2.819-0.258-0.687-0.648-1.273-1.142-1.751l-0.001-0.001c-0.48-0.495-1.065-0.885-1.72-1.133l-0.032-0.010c-0.837-0.315-1.803-0.504-2.814-0.518h-0.006c-1.175-0.059-2.55-0.094-3.934-0.094-0.224 0-0.448 0.001-0.672 0.002h0.034l0.001 0.001zM16 8.168c4.321 0 7.825 3.503 7.825 7.825s-3.503 7.825-7.825 7.825c-4.321 0-7.825-3.503-7.825-7.825s3.503-7.825 7.825-7.825zM16 10.911c-2.807 0-5.082 2.275-5.082 5.082s2.275 5.082 5.082 5.082c2.807 0 5.082-2.275 5.082-5.082s-2.275-5.082-5.082-5.082zM24.122 6.034c1.010 0 1.829 0.818 1.829 1.829s-0.818 1.829-1.829 1.829c-1.010 0-1.829-0.818-1.829-1.829s0.818-1.829 1.829-1.829z"></path>
</symbol>
</defs>
</svg>
