<svg aria-hidden="true" style="position: absolute; width: 0; height: 0; overflow: hidden;" version="1.1" xmlns="http://www.w3.org/2000/svg" xmlns:xlink="http://www.w3.org/1999/xlink">
<defs>
<symbol id="icon-fb-1icons" viewBox="0 0 32 32">
<path d="M13.040 29.333l-0.040-11.667h-5v-5h5v-3.333c0-4.493 2.787-6.667 6.8-6.667 1.92 0 3.573 0.133 4.053 0.2v4.707h-2.787c-2.173 0-2.6 1.040-2.6 2.56v2.533h6.2l-1.667 5h-4.533v11.667h-5.426z"></path>
</symbol>
<symbol id="icon-pinterest-1icons" viewBox="0 0 32 32">
<path d="M16 2.667c-7.343 0.027-13.286 5.986-13.286 13.333 0 5.599 3.452 10.393 8.343 12.368l0.089 0.032c-0.133-1.053-0.227-2.667 0.040-3.827l1.56-6.627c0 0-0.4-0.8-0.4-1.973 0-1.853 1.080-3.227 2.427-3.227 1.133 0 1.693 0.853 1.693 1.867 0 1.147-0.733 2.853-1.12 4.44-0.32 1.333 0.667 2.413 1.987 2.413 2.373 0 4.187-2.493 4.187-6.093 0-3.2-2.293-5.413-5.573-5.413-0.076-0.004-0.164-0.006-0.253-0.006-3.189 0-5.773 2.585-5.773 5.773 0 0.002 0 0.004 0 0.006 0 1.147 0.44 2.373 0.987 3.040 0.107 0.133 0.12 0.253 0.080 0.387l-0.373 1.507c-0.053 0.24-0.2 0.307-0.44 0.187-1.68-0.787-2.72-3.2-2.72-5.173 0-4.2 3.067-8.053 8.827-8.053 4.613 0 8.227 3.28 8.227 7.693 0 4.6-2.907 8.293-6.933 8.293-1.333 0-2.613-0.707-3.040-1.533l-0.84 3.16c-0.431 1.337-0.992 2.498-1.688 3.563l0.034-0.056c1.17 0.372 2.516 0.587 3.911 0.587 7.364 0 13.333-5.97 13.333-13.333 0-7.347-5.942-13.306-13.282-13.333h-0.003l-0.001-0.002z"></path>
</symbol>
<symbol id="icon-tw-1icons" viewBox="0 0 32 32">
<path d="M29.333 7.84c-1 0.493-2 0.667-3.173 0.827 1.173-0.667 2-1.667 2.333-3-1.005 0.608-2.176 1.071-3.423 1.322l-0.070 0.012c-1.031-1.014-2.44-1.646-3.996-1.667h-0.004c-2.84 0-5.333 2.507-5.333 5.507 0 0.493 0 0.827 0.173 1.16-4.578-0.178-8.619-2.337-11.311-5.639l-0.022-0.028c-0.425 0.726-0.676 1.598-0.676 2.529 0 0.109 0.003 0.218 0.010 0.326l-0.001-0.015c0.034 1.878 1.009 3.521 2.473 4.481l0.021 0.013c-0.84 0-1.667-0.333-2.507-0.667 0 2.667 1.84 4.84 4.333 5.333-0.493 0.173-1 0.173-1.493 0.173-0.333 0-0.667 0-1-0.173 0.667 2.173 2.667 3.84 5.173 3.84-1.8 1.455-4.116 2.335-6.637 2.335-0.071 0-0.142-0.001-0.213-0.002h-1.322c2.365 1.509 5.236 2.429 8.316 2.493h0.017c10 0 15.507-8.333 15.507-15.507v-0.667c1.147-0.79 2.093-1.787 2.803-2.944l0.024-0.042h-0.002z"></path>
</symbol>
<symbol id="icon-Vectoricons" viewBox="0 0 32 32">
<path d="M17.554 0.762c2.743 0 3.322 0.031 4.723 0.091 1.615 0.077 2.728 0.335 3.688 0.717 1.006 0.381 1.859 0.914 2.697 1.752 0.854 0.838 1.371 1.691 1.768 2.697 0.381 0.96 0.625 2.072 0.701 3.703 0.077 1.448 0.091 2.011 0.091 5.059v2.438c0 3.048-0.015 3.611-0.091 5.059-0.026 1.331-0.281 2.594-0.727 3.765l0.025-0.077c-0.397 1.006-0.914 1.859-1.752 2.697-0.854 0.854-1.706 1.371-2.712 1.768-0.96 0.381-2.072 0.625-3.688 0.701-1.448 0.077-2.026 0.091-5.074 0.091h-2.423c-3.048 0-3.611-0.015-5.074-0.091-1.331-0.026-2.594-0.281-3.765-0.727l0.077 0.025c-1.055-0.403-1.954-0.999-2.696-1.752l-0.001-0.001c-0.761-0.745-1.362-1.65-1.751-2.662l-0.017-0.051c-0.419-1.093-0.674-2.357-0.701-3.677v-0.011c-0.061-1.191-0.095-2.586-0.095-3.989 0-0.258 0.001-0.517 0.003-0.774v0.039-3.123c0-2.743 0.031-3.322 0.091-4.723 0.077-1.615 0.335-2.728 0.701-3.688 0.397-1.006 0.914-1.859 1.768-2.697 0.737-0.762 1.639-1.36 2.648-1.736l0.049-0.016c1.091-0.424 2.354-0.685 3.674-0.715h0.014c1.402-0.061 1.981-0.091 4.723-0.091h3.125zM17.585 3.505h-3.185c-2.637 0-3.2 0.031-4.571 0.091-1.478 0.061-2.286 0.305-2.819 0.518-0.717 0.274-1.219 0.609-1.752 1.143s-0.869 1.037-1.143 1.752c-0.198 0.534-0.457 1.341-0.518 2.834-0.061 1.371-0.091 1.92-0.091 4.571v3.169c0 2.651 0.031 3.2 0.091 4.571 0.061 1.478 0.305 2.286 0.518 2.819 0.274 0.717 0.609 1.219 1.143 1.752s1.037 0.869 1.752 1.143c0.534 0.214 1.341 0.457 2.834 0.518 1.478 0.077 2.011 0.091 5.303 0.091h1.691c3.306 0 3.825-0.015 5.318-0.091 1.478-0.061 2.286-0.305 2.819-0.518 0.717-0.274 1.219-0.609 1.752-1.143s0.869-1.037 1.143-1.752c0.214-0.534 0.457-1.341 0.518-2.819 0.077-1.494 0.091-2.011 0.091-5.318v-1.677c0-3.306-0.015-3.84-0.091-5.334-0.061-1.478-0.305-2.286-0.518-2.819-0.258-0.687-0.648-1.273-1.142-1.751l-0.001-0.001c-0.48-0.495-1.065-0.885-1.72-1.133l-0.032-0.010c-0.837-0.315-1.803-0.504-2.814-0.518h-0.006c-1.175-0.059-2.55-0.094-3.934-0.094-0.224 0-0.448 0.001-0.672 0.002h0.034l0.001 0.001zM16 8.168c4.321 0 7.825 3.503 7.825 7.825s-3.503 7.825-7.825 7.825c-4.321 0-7.825-3.503-7.825-7.825s3.503-7.825 7.825-7.825zM16 10.911c-2.807 0-5.082 2.275-5.082 5.082s2.275 5.082 5.082 5.082c2.807 0 5.082-2.275 5.082-5.082s-2.275-5.082-5.082-5.082zM24.122 6.034c1.010 0 1.829 0.818 1.829 1.829s-0.818 1.829-1.829 1.829c-1.010 0-1.829-0.818-1.829-1.829s0.818-1.829 1.829-1.829z"></path>
</symbol>
</defs>
</svg>
